# xmcd CD database file
#
# Track frame offsets:
#	150
#	38922
#	93089
#	126261
#	185139
#	248538
#	298376
#
# Disc length: 4519 seconds
#
# Revision: 2
# Processed by: cddbd v1.5.1PL0 Copyright (c) Steve Scherf et al.
# Submitted via: CDex 1.51
#
DISCID=6311a507
DTITLE=Barbara Dennerlein Duo - 10th Anniversary "It's Magic"
DYEAR=2005
DGENRE=Jazz
TTITLE0=In the House
TTITLE1=Longing
TTITLE2=Swing the Blondes
TTITLE3=Change of Pace
TTITLE4=The Long Way Blues
TTITLE5=Make it Spicy
TTITLE6=Rankett Blues
EXTD=YEAR: 2005
EXTT0=
EXTT1=
EXTT2=
EXTT3=
EXTT4=
EXTT5=
EXTT6=
PLAYORDER=
